<svg width="32" height="33" viewBox="0 0 32 33" fill="none" xmlns="http://www.w3.org/2000/svg">
<rect x="0.5" y="0.708496" width="31" height="31" rx="15.5" fill="#121212" fill-opacity="0.6"/>
<rect x="0.5" y="0.708496" width="31" height="31" rx="15.5" stroke="#424242"/>
<path fill-rule="evenodd" clip-rule="evenodd" d="M15.6332 10.2085H16.8998V22.8752H15.6332L11.8332 19.0752H8.6665V14.0085H11.8331L15.6332 10.2085ZM18.4833 21.7247C18.424 21.7247 18.365 21.7238 18.3062 21.7218V20.9713C18.3649 20.9736 18.4239 20.9747 18.4833 20.9747C20.9009 20.9747 22.8304 19.065 22.8304 16.7461C22.8304 14.4273 20.9009 12.5175 18.4833 12.5175C18.4239 12.5175 18.3649 12.5187 18.3062 12.5209V11.7705C18.365 11.7685 18.424 11.7675 18.4833 11.7675C21.2983 11.7675 23.5804 13.9965 23.5804 16.7461C23.5804 19.4957 21.2983 21.7247 18.4833 21.7247ZM18.5101 19.677C18.4416 19.677 18.3736 19.6747 18.3062 19.6702V18.9178C18.3734 18.9239 18.4414 18.927 18.5101 18.927C19.7419 18.927 20.7405 17.9284 20.7405 16.6966C20.7405 15.4648 19.7419 14.4662 18.5101 14.4662C18.4414 14.4662 18.3734 14.4693 18.3062 14.4754V13.7231C18.3736 13.7185 18.4416 13.7162 18.5101 13.7162C20.1561 13.7162 21.4905 15.0506 21.4905 16.6966C21.4905 18.3426 20.1561 19.677 18.5101 19.677Z" fill="#F8F8F8"/>
</svg>
